<?xml version="1.0" encoding="UTF-8"?>
<!-- Created with Inkscape (http://www.inkscape.org/) -->
<svg width="7.9358mm" height="3.9801mm" version="1.1" viewBox="0 0 7.9358 3.9801" xmlns="http://www.w3.org/2000/svg">
 <g transform="translate(56.977 -157.34)">
  <path d="m-55.658 157.34-1.3194 3.9581 1.3265 0.01 0.65784-1.9739 0.65797 1.9739 1.3264 6e-3 -1.3194-3.9741z" fill="none"/>
  <path d="m-55.658 157.34h1.33l1.3194 3.9741-1.3264-6e-3 -0.65797-1.9739-0.65784 1.9739-1.3265-0.01 1.3194-3.9581" fill="#80a2a6" fill-opacity=".99216"/>
  <path d="m-53.147 157.76 0.66761 1.9652-0.39084 1.1721-0.66761-1.9652z" fill="#565955"/>
  <path d="m-53.008 157.34 1.3264 6e-3 1.3194 3.9741-1.3236-7.9e-4z" fill="#80a2a6" fill-opacity=".99216"/>
  <path d="m-50.366 157.35 1.3247-6e-3 -1.192 3.558-0.65839-1.9752z" fill="#565955"/>
 </g>
</svg>
